<svg xmlns="http://www.w3.org/2000/svg" viewBox="0 0 272 94" width="272" height="94">
	<style>
		tspan { white-space:pre }
		.shp0 { fill: #012f51 } 
		.shp1 { fill: #00b7ff } 
		.shp2 { fill: #000000 } 
	</style>
	<path id="Layer" fill-rule="evenodd" class="shp0" d="M-177.3 26.4C-177.3 24.3 -177.3 22.1 -177.3 19.9C-172.3 19.9 -167.5 19.9 -162.5 19.9C-162.5 20.2 -162.5 20.4 -162.5 20.7C-162.5 35.3 -162.5 49.9 -162.5 64.6C-162.5 68.6 -162.9 72.6 -164.1 76.4C-165.6 81.1 -168.1 85.1 -172.1 88.1C-174.7 90 -177.6 91.3 -180.7 92.2C-185 93.4 -189.3 93.7 -193.7 93.6C-198.5 93.5 -203.2 92.9 -207.9 91.6C-211.5 90.6 -214.9 89.2 -217.9 87C-218.2 86.8 -218.5 86.6 -218.8 86.3C-218.7 86.1 -218.7 85.9 -218.6 85.8C-217.6 83.9 -216.5 82 -215.5 80.1C-214 77.5 -211.1 76.6 -208.4 77.8C-203.5 80.1 -198.3 81.2 -192.9 81.1C-190.9 81.1 -188.9 80.8 -187 80.3C-182.3 79 -179.5 75.8 -178.5 71.1C-178 69 -178 66.8 -178.1 64.7C-178.1 64.7 -178.1 64.6 -178.2 64.5C-178.3 64.6 -178.4 64.6 -178.4 64.6C-181.4 67.8 -185.1 69.6 -189.4 70.4C-195.4 71.5 -201.2 71 -206.7 68.5C-213.9 65.3 -218.6 60 -220.8 52.4C-221.7 49.2 -221.9 45.8 -221.7 42.5C-221.4 39.2 -220.6 36 -219.1 33C-215.7 26.4 -210.3 22.2 -203.2 20.2C-197.7 18.7 -192.2 18.6 -186.8 20.3C-183.3 21.4 -180.3 23.3 -177.9 26.1C-177.8 26.2 -177.7 26.3 -177.5 26.5C-177.4 26.4 -177.4 26.4 -177.3 26.4ZM-191.9 58.2C-190.7 58.1 -189.5 58 -188.3 57.8C-184.7 57.1 -181.8 55.2 -179.8 52.1C-178.2 49.7 -177.8 47 -177.9 44.2C-178.1 38.7 -181.5 34.3 -186.8 32.6C-190.2 31.5 -193.6 31.6 -197 32.6C-199.4 33.3 -201.4 34.6 -203 36.5C-205.3 39.1 -206.2 42.2 -206 45.6C-205.8 51.1 -203 54.9 -197.9 57C-196 57.8 -194 58.1 -191.9 58.2ZM-344.5 47.4C-344.5 41.2 -343.2 36.2 -340.3 31.7C-336.8 26.3 -331.8 22.7 -325.8 20.7C-321.4 19.2 -316.9 18.8 -312.4 19.1C-308.4 19.4 -304.6 20.2 -301 22C-293.5 25.6 -288.5 31.4 -286.5 39.5C-284.9 46 -285.3 52.5 -288.2 58.7C-291.6 65.8 -297.3 70.3 -304.7 72.8C-308.8 74.1 -313.1 74.5 -317.5 74.2C-321.6 73.9 -325.6 73 -329.3 71.2C-336.6 67.6 -341.5 62 -343.6 54.1C-344.2 51.6 -344.4 49.1 -344.5 47.4ZM-328.7 47.3C-328.6 48 -328.5 49.4 -328.3 50.7C-327.4 55 -325 58.2 -321 60.2C-318.5 61.4 -315.8 61.7 -313 61.4C-307.6 60.7 -304 57.7 -302.2 52.6C-300.8 48.8 -300.9 44.8 -302.1 41C-303.4 37 -306 34.2 -309.9 32.7C-311.8 32 -313.8 31.8 -315.8 31.9C-321.2 32.2 -325.1 34.9 -327.4 39.9C-328.4 42 -328.7 44.3 -328.7 47.3ZM-265.8 73.3C-271 73.3 -276.1 73.3 -281.2 73.3C-281.3 72.8 -281.4 20.7 -281.2 19.8C-276.3 19.8 -271.4 19.8 -266.4 19.8C-266.4 21.8 -266.4 23.8 -266.4 25.9C-266.2 25.8 -266.2 25.8 -266.1 25.7C-262.8 22.3 -258.8 20.4 -254.3 19.5C-250 18.7 -245.7 18.7 -241.5 19.9C-234 22.1 -229.3 27 -227.4 34.6C-226.7 37.2 -226.5 39.8 -226.5 42.5C-226.5 51 -226.5 59.4 -226.5 67.9C-226.5 70.4 -227.9 72.4 -230.1 73.1C-230.7 73.3 -231.4 73.4 -232 73.4C-235.1 73.4 -238.3 73.4 -241.4 73.4C-241.6 73.4 -241.7 73.3 -242 73.3C-242 73 -242 72.7 -242 72.4C-242 63.2 -242 54.1 -242 44.9C-242 42.9 -242.2 40.9 -242.9 39C-244.2 35.4 -246.7 33.3 -250.4 32.7C-253 32.3 -255.5 32.4 -258 33.4C-261.8 34.9 -264.1 37.7 -265.1 41.6C-265.5 43.3 -265.7 45 -265.7 46.7C-265.7 55.3 -265.7 63.9 -265.7 72.5C-265.7 72.8 -265.7 73.1 -265.8 73.3ZM-470.1 68.1C-470.1 67.9 -470.1 67.8 -470 67.6C-469 65.5 -468.1 63.4 -467.2 61.3C-466.3 59.2 -464.3 58 -462.1 58.2C-461.5 58.3 -460.9 58.5 -460.3 58.7C-457.3 59.9 -454.3 60.8 -451.2 61.3C-448 61.8 -444.7 61.9 -441.4 61.2C-440.3 61 -439.3 60.6 -438.4 60C-437 59 -436.4 57.7 -436.5 56C-436.5 55 -436.9 54.2 -437.7 53.7C-438.3 53.3 -439 52.9 -439.7 52.7C-441.6 52 -443.6 51.6 -445.6 51.3C-449.8 50.6 -454 49.9 -458.1 48.6C-461.3 47.6 -463.9 45.8 -466 43.3C-467.4 41.7 -468.2 39.7 -468.5 37.5C-469 34.6 -468.9 31.6 -468 28.8C-466.8 25 -464.5 22.2 -461.3 20C-458.3 18 -455 16.9 -451.3 16C-446.9 15.2 -442.5 15.2 -438.1 15.7C-434.1 16.2 -430.1 17.1 -426.3 18.7C-425.4 19.1 -424.6 19.6 -423.7 20C-423.5 20.1 -423.3 20.3 -423.1 20.4C-423.1 20.6 -423.2 20.7 -423.2 20.8C-424.1 23 -425 25.2 -426 27.3C-426.7 28.8 -427.8 29.9 -429.4 30.3C-430.5 30.6 -431.6 30.5 -432.6 30.1C-434.7 29.3 -436.9 28.7 -439.1 28.4C-442.4 27.9 -445.6 27.8 -448.8 28.6C-450.1 28.9 -451.2 29.4 -452.2 30.3C-453.4 31.2 -453.9 32.4 -453.7 33.9C-453.5 35.3 -452.8 36.3 -451.6 36.8C-450.5 37.3 -449.4 37.8 -448.2 38C-445.4 38.7 -442.5 39.2 -439.6 39.7C-437.1 40.2 -434.6 40.5 -432.2 41.2C-429 42.1 -426.3 43.9 -424.2 46.5C-422.8 48.2 -422 50.2 -421.7 52.4C-421.2 55.2 -421.2 58.1 -422.1 60.9C-423.3 64.5 -425.4 67.3 -428.5 69.4C-431.3 71.4 -434.5 72.6 -437.8 73.3C-441.8 74.2 -445.8 74.4 -449.9 74.1C-454.9 73.7 -459.7 72.7 -464.4 70.9C-466.1 70.3 -467.8 69.5 -469.3 68.5C-469.6 68.4 -469.8 68.2 -470.1 68.1ZM-382.1 60C-382.1 64.3 -382.1 68.4 -382.1 72.7C-382.3 72.8 -382.6 72.9 -382.8 73C-385.9 73.9 -389.1 74.3 -392.4 74.1C-394.7 74 -396.9 73.7 -399.1 73C-405.3 71 -409.1 66.7 -410.4 60.3C-410.8 58.5 -410.9 56.7 -410.9 54.8C-410.9 47.6 -410.9 40.3 -410.9 33.1C-410.9 32.9 -410.9 32.6 -410.9 32.2C-413.6 32.2 -416.3 32.2 -419 32.2C-419.2 31.6 -419.2 21.5 -419.1 20.3C-416.4 20.3 -413.7 20.3 -410.9 20.3C-410.9 19.4 -410.9 18.6 -410.9 17.8C-410.9 17 -410.9 16.2 -410.9 15.4C-410.9 14.6 -410.9 13.8 -410.9 13C-410.9 12.2 -410.9 11.4 -410.9 10.6C-410.9 9.8 -410.9 9 -410.9 8.2C-410.3 8 -397.3 7.9 -395.4 8.2C-395.4 9 -395.4 9.8 -395.4 10.6C-395.4 11.4 -395.4 12.2 -395.4 13C-395.4 13.8 -395.4 14.6 -395.4 15.4C-395.4 16.2 -395.4 17 -395.4 17.8C-395.4 18.6 -395.4 19.4 -395.4 20.3C-394.2 20.3 -393.1 20.3 -392 20.3C-390.9 20.3 -389.8 20.3 -388.7 20.3C-387.6 20.3 -386.5 20.3 -385.4 20.3C-384.3 20.3 -383.2 20.3 -382.1 20.3C-382 20.6 -382 20.7 -382 20.9C-382 22.9 -382 24.9 -382 26.9C-382 29.5 -383.7 31.6 -386.2 32.1C-386.6 32.2 -387.1 32.2 -387.5 32.2C-389.8 32.2 -392.1 32.2 -394.4 32.2C-394.6 32.2 -394.9 32.2 -395.2 32.2C-395.3 32.5 -395.3 32.7 -395.3 32.9C-395.3 40.3 -395.3 47.6 -395.3 55C-395.3 55.9 -395.2 56.8 -394.9 57.7C-394.2 60.1 -392.5 61.4 -390.1 61.8C-387.6 62.2 -385.2 61.5 -382.9 60.5C-382.7 60.3 -382.4 60.2 -382.1 60ZM-362 73.3C-367.2 73.3 -372.3 73.3 -377.4 73.3C-377.6 72.7 -377.6 20.5 -377.4 19.8C-372.5 19.8 -367.6 19.8 -362.7 19.8C-362.5 20.5 -362.6 21.3 -362.6 22C-362.6 22.8 -362.6 23.5 -362.6 24.3C-362.6 25 -362.6 25.7 -362.6 26.6C-362.5 26.5 -362.4 26.5 -362.3 26.4C-359.6 23 -356 21 -351.9 19.9C-349.6 19.3 -347.2 19 -344.8 19C-344.7 19 -344.5 19 -344.3 19C-344.3 19.3 -344.3 19.6 -344.3 19.8C-344.3 23 -344.4 26.3 -344.3 29.5C-344.3 31.5 -345.9 33.1 -348 33.1C-350 33.1 -351.9 33.4 -353.8 34.1C-358 35.7 -360.5 38.6 -361.5 42.9C-361.9 44.7 -362.1 46.5 -362.1 48.3C-362.1 56.3 -362.1 64.4 -362.1 72.4C-362.1 72.7 -362.1 73 -362 73.3Z" />
	<path id="Layer" fill-rule="evenodd" class="shp1" d="M-24 69.7C-24 72.3 -26.1 74.9 -29.2 74.9C-30.4 74.9 -31.5 74.9 -32.7 74.9C-32.9 74.9 -33.1 74.8 -33.4 74.8C-33.4 74.5 -33.4 74.2 -33.4 73.9C-33.4 64.1 -33.4 54.2 -33.4 44.4C-33.4 42 -33.6 39.7 -34.4 37.5C-36 33 -39.2 30.4 -43.9 29.6C-46.8 29.1 -49.7 29.2 -52.5 30.1C-57.3 31.5 -60.3 34.8 -61.9 39.4C-62.8 41.8 -63 44.3 -63 46.9C-63 55.8 -63 64.8 -63 73.8C-63 74.1 -63 74.4 -63 74.7C-66.2 74.7 -69.2 74.7 -72.4 74.7C-72.4 74.4 -72.4 74.1 -72.4 73.8C-72.4 64.1 -72.4 54.4 -72.4 44.7C-72.4 42.2 -72.6 39.8 -73.4 37.5C-74.9 32.8 -78.2 30.1 -83 29.4C-85.8 28.9 -88.7 29 -91.5 29.9C-96.4 31.4 -99.5 34.8 -101 39.6C-101.7 41.8 -101.9 44 -101.9 46.3C-101.9 55.5 -101.9 64.6 -101.9 73.7C-101.9 74 -101.9 74.3 -101.9 74.6C-105 74.6 -108 74.6 -111.1 74.6C-111.1 74.1 -111.2 73.5 -111.2 73C-111.2 71.4 -111.2 69.8 -111.2 68.2C-111.2 67.9 -111.2 67.7 -111.2 67.3C-111.5 67.5 -111.6 67.6 -111.7 67.7C-115.6 71.9 -120.6 74.3 -126.3 74.9C-131.9 75.5 -137.3 74.7 -142.4 72.1C-149.4 68.5 -153.8 62.7 -155.6 55C-157.1 48.7 -156.8 42.4 -154.3 36.4C-150.8 28.1 -144.5 23 -135.7 21.1C-130.9 20.1 -126.2 20.3 -121.5 21.7C-117.7 22.8 -114.5 24.8 -111.8 27.6C-111.6 27.8 -111.5 28 -111.4 28.1C-111.3 28.1 -111.3 28 -111.2 28C-111.2 18.7 -111.2 9.3 -111.2 -0.1C-110.9 -0.2 -110.7 -0.2 -110.5 -0.2C-109.2 -0.2 -107.9 -0.2 -106.6 -0.2C-103.9 -0.2 -101.8 2 -101.8 4.6C-101.8 11.9 -101.8 19.2 -101.8 26.5C-101.8 26.8 -101.8 27.1 -101.8 27.5C-101.6 27.3 -101.5 27.3 -101.4 27.2C-98.3 24 -94.5 22.1 -90.1 21.2C-85.9 20.3 -81.6 20.4 -77.4 21.5C-72.7 22.8 -68.9 25.4 -66.3 29.7C-66.2 29.7 -66.2 29.8 -66.1 29.9C-66.1 29.9 -66.1 29.9 -66 30C-65.9 29.9 -65.8 29.8 -65.7 29.7C-62.2 25.1 -57.6 22.4 -52 21.2C-47.5 20.3 -43.1 20.3 -38.7 21.5C-31.6 23.4 -27 28 -25 35.1C-24.3 37.6 -24 40.1 -24 42.7C-23.9 51.7 -24 60.7 -24 69.7ZM-111.2 47.7C-111.3 45.6 -111.6 43.6 -112.1 41.8C-113.7 36.5 -117 32.6 -122.2 30.5C-125.5 29.2 -128.9 28.9 -132.4 29.5C-137.8 30.4 -141.9 33.2 -144.6 38.1C-147.7 43.7 -147.8 51.7 -144.9 57.4C-142.7 61.6 -139.5 64.4 -135 65.9C-132.1 66.9 -129.1 67.1 -126 66.6C-120.6 65.7 -116.4 62.9 -113.7 58.1C-111.8 54.8 -111.1 51.2 -111.2 47.7Z" />
	<g id="Layer">
		<path id="Layer" class="shp2" d="M25.9 11.1L29.4 11.1L4.2 82.9L0.7 82.9L25.9 11.1Z" />
		<path id="Layer" fill-rule="evenodd" class="shp2" d="M55.8 21.9L76.9 21.9C82.4 21.9 87.4 23 91.7 25.3C96 27.6 99.3 30.8 101.7 34.8C104.1 38.8 105.3 43.4 105.3 48.6C105.3 53.7 104.1 58.3 101.7 62.4C99.3 66.4 96 69.6 91.7 71.9C87.4 74.2 82.5 75.3 76.9 75.3L55.8 75.3L55.8 21.9ZM76.6 71.8C81.5 71.8 85.9 70.8 89.6 68.9C93.4 66.9 96.3 64.2 98.3 60.7C100.3 57.2 101.3 53.2 101.3 48.7C101.3 44.2 100.3 40.2 98.3 36.7C96.3 33.2 93.4 30.5 89.6 28.5C85.8 26.5 81.5 25.6 76.6 25.6L59.7 25.6L59.7 71.9L76.6 71.9L76.6 71.8Z" />
		<path id="Layer" fill-rule="evenodd" class="shp2" d="M127.2 72.1C123 69.7 119.7 66.5 117.3 62.4C114.9 58.3 113.7 53.7 113.7 48.6C113.7 43.5 114.9 38.9 117.3 34.8C119.7 30.7 123 27.4 127.2 25.1C131.4 22.7 136.1 21.6 141.4 21.6C146.6 21.6 151.4 22.8 155.6 25.1C159.8 27.4 163.1 30.7 165.5 34.8C167.9 38.9 169.1 43.5 169.1 48.7C169.1 53.8 167.9 58.5 165.5 62.6C163.1 66.7 159.8 69.9 155.6 72.3C151.4 74.6 146.7 75.8 141.4 75.8C136.1 75.7 131.4 74.5 127.2 72.1ZM153.5 69C157.1 67 160 64.2 162 60.6C164.1 57 165.1 53 165.1 48.6C165.1 44.2 164.1 40.2 162 36.6C159.9 33 157.1 30.2 153.5 28.2C149.9 26.2 145.9 25.2 141.4 25.2C136.9 25.2 132.9 26.2 129.2 28.2C125.6 30.2 122.7 33 120.6 36.6C118.5 40.2 117.5 44.2 117.5 48.6C117.5 53 118.5 57 120.6 60.6C122.7 64.2 125.5 67 129.2 69C132.8 71 136.9 72 141.4 72C145.8 72.1 149.9 71.1 153.5 69Z" />
		<path id="Layer" class="shp2" d="M191 72.2C186.8 69.9 183.5 66.6 181.1 62.5C178.7 58.4 177.5 53.8 177.5 48.6C177.5 43.5 178.7 38.8 181.1 34.7C183.5 30.6 186.8 27.4 191 25C195.2 22.7 199.9 21.5 205.1 21.5C209 21.5 212.5 22.1 215.8 23.4C219.1 24.6 221.8 26.5 224.1 28.9L221.7 31.4C217.4 27.2 212 25.1 205.3 25.1C200.8 25.1 196.8 26.1 193.1 28.1C189.4 30.1 186.6 32.9 184.5 36.5C182.4 40.1 181.4 44.1 181.4 48.5C181.4 52.9 182.4 56.9 184.5 60.5C186.6 64.1 189.5 66.9 193.1 68.9C196.8 70.9 200.8 71.9 205.3 71.9C211.9 71.9 217.4 69.8 221.7 65.5L224.1 68C221.8 70.4 219 72.3 215.8 73.6C212.5 74.9 209 75.5 205.2 75.5C199.9 75.7 195.2 74.5 191 72.2Z" />
		<path id="Layer" class="shp2" d="M239.7 73.7C236.2 72.4 233.4 70.6 231.4 68.5L233.2 65.6C235.1 67.6 237.6 69.2 240.8 70.4C244 71.6 247.3 72.3 250.8 72.3C255.9 72.3 259.7 71.3 262.3 69.4C264.9 67.5 266.2 65 266.2 61.9C266.2 59.5 265.5 57.6 264.1 56.2C262.7 54.8 261 53.7 259 52.9C257 52.1 254.2 51.4 250.8 50.5C246.9 49.5 243.7 48.6 241.4 47.7C239 46.8 237 45.4 235.4 43.5C233.7 41.6 232.9 39 232.9 35.8C232.9 33.2 233.6 30.8 235 28.7C236.4 26.5 238.5 24.8 241.3 23.6C244.1 22.3 247.6 21.7 251.9 21.7C254.8 21.7 257.7 22.1 260.6 23C263.4 23.9 265.9 25 268 26.5L266.6 29.6C264.5 28.1 262.1 27 259.5 26.2C256.9 25.4 254.4 25.1 251.9 25.1C247 25.1 243.2 26.1 240.7 28.1C238.2 30.1 236.9 32.6 236.9 35.8C236.9 38.2 237.6 40.1 239 41.5C240.4 42.9 242.1 44 244.1 44.8C246.1 45.6 248.9 46.4 252.4 47.2C256.3 48.2 259.4 49.1 261.8 50C264.1 50.9 266.1 52.3 267.8 54.2C269.5 56.1 270.3 58.6 270.3 61.7C270.3 64.3 269.6 66.7 268.2 68.8C266.8 70.9 264.7 72.6 261.8 73.9C258.9 75.2 255.3 75.8 251.1 75.8C247 75.7 243.3 75 239.7 73.7Z" />
	</g>
</svg>