<?xml version="1.0" encoding="utf-8"?>
<!-- Generator: Adobe Illustrator 24.0.0, SVG Export Plug-In . SVG Version: 6.00 Build 0)  -->
<svg version="1.1" id="Layer_1" xmlns="http://www.w3.org/2000/svg" xmlns:xlink="http://www.w3.org/1999/xlink" x="0px" y="0px"
	 viewBox="0 0 446.2 93.6" style="enable-background:new 0 0 446.2 93.6;" xml:space="preserve">
<style type="text/css">
	.st0{fill:#012F51;}
	.st1{fill:#00B7FF;}
</style>
<path class="st0" d="M292.7,26.4c0-2.1,0-4.3,0-6.5c5,0,9.8,0,14.8,0c0,0.3,0,0.5,0,0.8c0,14.6,0,29.2,0,43.9c0,4-0.4,8-1.6,11.8
	c-1.5,4.7-4,8.7-8,11.7c-2.6,1.9-5.5,3.2-8.6,4.1c-4.3,1.2-8.6,1.5-13,1.4c-4.8-0.1-9.5-0.7-14.2-2c-3.6-1-7-2.4-10-4.6
	c-0.3-0.2-0.6-0.4-0.9-0.7c0.1-0.2,0.1-0.4,0.2-0.5c1-1.9,2.1-3.8,3.1-5.7c1.5-2.6,4.4-3.5,7.1-2.3c4.9,2.3,10.1,3.4,15.5,3.3
	c2,0,4-0.3,5.9-0.8c4.7-1.3,7.5-4.5,8.5-9.2c0.5-2.1,0.5-4.3,0.4-6.4c0,0,0-0.1-0.1-0.2c-0.1,0.1-0.2,0.1-0.2,0.1
	c-3,3.2-6.7,5-11,5.8c-6,1.1-11.8,0.6-17.3-1.9c-7.2-3.2-11.9-8.5-14.1-16.1c-0.9-3.2-1.1-6.6-0.9-9.9c0.3-3.3,1.1-6.5,2.6-9.5
	c3.4-6.6,8.8-10.8,15.9-12.8c5.5-1.5,11-1.6,16.4,0.1c3.5,1.1,6.5,3,8.9,5.8c0.1,0.1,0.2,0.2,0.4,0.4
	C292.6,26.4,292.6,26.4,292.7,26.4z M278.1,58.2c1.2-0.1,2.4-0.2,3.6-0.4c3.6-0.7,6.5-2.6,8.5-5.7c1.6-2.4,2-5.1,1.9-7.9
	c-0.2-5.5-3.6-9.9-8.9-11.6c-3.4-1.1-6.8-1-10.2,0c-2.4,0.7-4.4,2-6,3.9c-2.3,2.6-3.2,5.7-3,9.1c0.2,5.5,3,9.3,8.1,11.4
	C274,57.8,276,58.1,278.1,58.2z M125.5,47.4c0-6.2,1.3-11.2,4.2-15.7c3.5-5.4,8.5-9,14.5-11c4.4-1.5,8.9-1.9,13.4-1.6
	c4,0.3,7.8,1.1,11.4,2.9c7.5,3.6,12.5,9.4,14.5,17.5c1.6,6.5,1.2,13-1.7,19.2c-3.4,7.1-9.1,11.6-16.5,14.1
	c-4.1,1.3-8.4,1.7-12.8,1.4c-4.1-0.3-8.1-1.2-11.8-3c-7.3-3.6-12.2-9.2-14.3-17.1C125.8,51.6,125.6,49.1,125.5,47.4z M141.3,47.3
	c0.1,0.7,0.2,2.1,0.4,3.4c0.9,4.3,3.3,7.5,7.3,9.5c2.5,1.2,5.2,1.5,8,1.2c5.4-0.7,9-3.7,10.8-8.8c1.4-3.8,1.3-7.8,0.1-11.6
	c-1.3-4-3.9-6.8-7.8-8.3c-1.9-0.7-3.9-0.9-5.9-0.8c-5.4,0.3-9.3,3-11.6,8C141.6,42,141.3,44.3,141.3,47.3z M204.3,72.5
	c0-8.6,0-17.2,0-25.8c0-1.7,0.2-3.4,0.6-5.1c1-3.9,3.3-6.7,7.1-8.2c2.5-1,5-1.1,7.6-0.7c3.7,0.6,6.2,2.7,7.5,6.3
	c0.7,1.9,0.9,3.9,0.9,5.9c0,9.2,0,18.3,0,27.5c0,0.3,0,0.6,0,0.9c0.3,0,0.4,0.1,0.6,0.1c3.1,0,6.3,0,9.4,0c0.6,0,1.3-0.1,1.9-0.3
	c2.2-0.7,3.6-2.7,3.6-5.2c0-8.5,0-16.9,0-25.4c0-2.7-0.2-5.3-0.9-7.9c-1.9-7.6-6.6-12.5-14.1-14.7c-4.2-1.2-8.5-1.2-12.8-0.4
	c-4.5,0.9-8.5,2.8-11.8,6.2c-0.1,0.1-0.1,0.1-0.3,0.2c0-2.1,0-4.1,0-6.1c-5,0-9.9,0-14.8,0c-0.2,0.9-0.1,53,0,53.5
	c5.1,0,10.2,0,15.4,0C204.3,73.1,204.3,72.8,204.3,72.5z M0.7,68.5c1.5,1,3.2,1.8,4.9,2.4c4.7,1.8,9.5,2.8,14.5,3.2
	c4.1,0.3,8.1,0.1,12.1-0.8c3.3-0.7,6.5-1.9,9.3-3.9c3.1-2.1,5.2-4.9,6.4-8.5c0.9-2.8,0.9-5.7,0.4-8.5c-0.3-2.2-1.1-4.2-2.5-5.9
	c-2.1-2.6-4.8-4.4-8-5.3c-2.4-0.7-4.9-1-7.4-1.5c-2.9-0.5-5.8-1-8.6-1.7c-1.2-0.2-2.3-0.7-3.4-1.2c-1.2-0.5-1.9-1.5-2.1-2.9
	c-0.2-1.5,0.3-2.7,1.5-3.6c1-0.9,2.1-1.4,3.4-1.7c3.2-0.8,6.4-0.7,9.7-0.2c2.2,0.3,4.4,0.9,6.5,1.7c1,0.4,2.1,0.5,3.2,0.2
	c1.6-0.4,2.7-1.5,3.4-3c1-2.1,1.9-4.3,2.8-6.5c0-0.1,0.1-0.2,0.1-0.4c-0.2-0.1-0.4-0.3-0.6-0.4c-0.9-0.4-1.7-0.9-2.6-1.3
	c-3.8-1.6-7.8-2.5-11.8-3c-4.4-0.5-8.8-0.5-13.2,0.3C15,16.9,11.7,18,8.7,20c-3.2,2.2-5.5,5-6.7,8.8c-0.9,2.8-1,5.8-0.5,8.7
	c0.3,2.2,1.1,4.2,2.5,5.8c2.1,2.5,4.7,4.3,7.9,5.3c4.1,1.3,8.3,2,12.5,2.7c2,0.3,4,0.7,5.9,1.4c0.7,0.2,1.4,0.6,2,1
	c0.8,0.5,1.2,1.3,1.2,2.3c0.1,1.7-0.5,3-1.9,4c-0.9,0.6-1.9,1-3,1.2c-3.3,0.7-6.6,0.6-9.8,0.1c-3.1-0.5-6.1-1.4-9.1-2.6
	c-0.6-0.2-1.2-0.4-1.8-0.5c-2.2-0.2-4.2,1-5.1,3.1c-0.9,2.1-1.8,4.2-2.8,6.3c-0.1,0.2-0.1,0.3-0.1,0.5C0.2,68.2,0.4,68.4,0.7,68.5z
	 M87.1,60.5c-2.3,1-4.7,1.7-7.2,1.3c-2.4-0.4-4.1-1.7-4.8-4.1c-0.3-0.9-0.4-1.8-0.4-2.7c0-7.4,0-14.7,0-22.1c0-0.2,0-0.4,0.1-0.7
	c0.3,0,0.6,0,0.8,0c2.3,0,4.6,0,6.9,0c0.4,0,0.9,0,1.3-0.1c2.5-0.5,4.2-2.6,4.2-5.2c0-2,0-4,0-6c0-0.2,0-0.3-0.1-0.6
	c-1.1,0-2.2,0-3.3,0c-1.1,0-2.2,0-3.3,0c-1.1,0-2.2,0-3.3,0c-1.1,0-2.2,0-3.4,0c0-0.9,0-1.7,0-2.5c0-0.8,0-1.6,0-2.4
	c0-0.8,0-1.6,0-2.4c0-0.8,0-1.6,0-2.4c0-0.8,0-1.6,0-2.4C72.7,7.9,59.7,8,59.1,8.2c0,0.8,0,1.6,0,2.4c0,0.8,0,1.6,0,2.4
	c0,0.8,0,1.6,0,2.4c0,0.8,0,1.6,0,2.4c0,0.8,0,1.6,0,2.5c-2.8,0-5.5,0-8.2,0c-0.1,1.2-0.1,11.3,0.1,11.9c2.7,0,5.4,0,8.1,0
	c0,0.4,0,0.7,0,0.9c0,7.2,0,14.5,0,21.7c0,1.9,0.1,3.7,0.5,5.5c1.3,6.4,5.1,10.7,11.3,12.7c2.2,0.7,4.4,1,6.7,1.1
	c3.3,0.2,6.5-0.2,9.6-1.1c0.2-0.1,0.5-0.2,0.7-0.3c0-4.3,0-8.4,0-12.7C87.6,60.2,87.3,60.3,87.1,60.5z M107.9,72.4
	c0-8,0-16.1,0-24.1c0-1.8,0.2-3.6,0.6-5.4c1-4.3,3.5-7.2,7.7-8.8c1.9-0.7,3.8-1,5.8-1c2.1,0,3.7-1.6,3.7-3.6c-0.1-3.2,0-6.5,0-9.7
	c0-0.2,0-0.5,0-0.8c-0.2,0-0.4,0-0.5,0c-2.4,0-4.8,0.3-7.1,0.9c-4.1,1.1-7.7,3.1-10.4,6.5c-0.1,0.1-0.2,0.1-0.3,0.2
	c0-0.9,0-1.6,0-2.3c0-0.8,0-1.5,0-2.3c0-0.7,0.1-1.5-0.1-2.2c-4.9,0-9.8,0-14.7,0c-0.2,0.7-0.2,52.9,0,53.5c5.1,0,10.2,0,15.4,0
	C107.9,73,107.9,72.7,107.9,72.4z"/>
<path class="st1" d="M446,42.7c0-2.6-0.3-5.1-1-7.6c-2-7.1-6.6-11.7-13.7-13.6c-4.4-1.2-8.8-1.2-13.3-0.3
	c-5.6,1.2-10.2,3.9-13.7,8.5c-0.1,0.1-0.2,0.2-0.3,0.3c-0.1-0.1-0.1-0.1-0.1-0.1c-0.1-0.1-0.1-0.2-0.2-0.2
	c-2.6-4.3-6.4-6.9-11.1-8.2c-4.2-1.1-8.5-1.2-12.7-0.3c-4.4,0.9-8.2,2.8-11.3,6c-0.1,0.1-0.2,0.1-0.4,0.3c0-0.4,0-0.7,0-1
	c0-7.3,0-14.6,0-21.9c0-2.6-2.1-4.8-4.8-4.8c-1.3,0-2.6,0-3.9,0c-0.2,0-0.4,0-0.7,0.1c0,9.4,0,18.8,0,28.1c-0.1,0-0.1,0.1-0.2,0.1
	c-0.1-0.1-0.2-0.3-0.4-0.5c-2.7-2.8-5.9-4.8-9.7-5.9c-4.7-1.4-9.4-1.6-14.2-0.6c-8.8,1.9-15.1,7-18.6,15.3c-2.5,6-2.8,12.3-1.3,18.6
	c1.8,7.7,6.2,13.5,13.2,17.1c5.1,2.6,10.5,3.4,16.1,2.8c5.7-0.6,10.7-3,14.6-7.2c0.1-0.1,0.2-0.2,0.5-0.4c0,0.4,0,0.6,0,0.9
	c0,1.6,0,3.2,0,4.8c0,0.5,0.1,1.1,0.1,1.6c3.1,0,6.1,0,9.2,0c0-0.3,0-0.6,0-0.9c0-9.1,0-18.2,0-27.4c0-2.3,0.2-4.5,0.9-6.7
	c1.5-4.8,4.6-8.2,9.5-9.7c2.8-0.9,5.7-1,8.5-0.5c4.8,0.7,8.1,3.4,9.6,8.1c0.8,2.3,1,4.7,1,7.2c0,9.7,0,19.4,0,29.1
	c0,0.3,0,0.6,0,0.9c3.2,0,6.2,0,9.4,0c0-0.3,0-0.6,0-0.9c0-9,0-18,0-26.9c0-2.6,0.2-5.1,1.1-7.5c1.6-4.6,4.6-7.9,9.4-9.3
	c2.8-0.9,5.7-1,8.6-0.5c4.7,0.8,7.9,3.4,9.5,7.9c0.8,2.2,1,4.5,1,6.9c0,9.8,0,19.7,0,29.5c0,0.3,0,0.6,0,0.9c0.3,0,0.5,0.1,0.7,0.1
	c1.2,0,2.3,0,3.5,0c3.1,0,5.2-2.6,5.2-5.2C446,60.7,446.1,51.7,446,42.7z M356.3,58.1c-2.7,4.8-6.9,7.6-12.3,8.5
	c-3.1,0.5-6.1,0.3-9-0.7c-4.5-1.5-7.7-4.3-9.9-8.5c-2.9-5.7-2.8-13.7,0.3-19.3c2.7-4.9,6.8-7.7,12.2-8.6c3.5-0.6,6.9-0.3,10.2,1
	c5.2,2.1,8.5,6,10.1,11.3c0.5,1.8,0.8,3.8,0.9,5.9C358.9,51.2,358.2,54.8,356.3,58.1z"/>
</svg>
